<svg xmlns="http://www.w3.org/2000/svg" height="1024" preserveAspectRatio="none" style="display: block;" version="1.1" viewBox="0 0 2048 2048" width="1024">
<defs>
	<linearGradient gradientUnits="userSpaceOnUse" id="Gradient1" x1="1305.4" x2="1305.82" y1="1262.52" y2="1268.81">
		<stop class="stop0" offset="0" stop-color="rgb(28,29,64)" stop-opacity="1"></stop>
		<stop class="stop1" offset="1" stop-color="rgb(59,58,88)" stop-opacity="1"></stop>
	</linearGradient>
</defs>
<path d="M 971.64 105.426 C 1009.75 103.291 1061.83 104.794 1099.75 106.767 C 1259.14 114.228 1416.08 148.953 1563.74 209.435 C 1655.64 246.022 1744.16 292.217 1827.34 345.674 C 1876.2 377.076 1908.34 405.432 1931.46 460.613 C 1965.82 542.641 1931.18 627.735 1899.82 704.335 C 1817.7 904.912 1708.21 1093.64 1591.09 1275.56 C 1570.54 1308.09 1549.82 1340.51 1528.92 1372.82 C 1484.92 1438.83 1439.55 1503.92 1392.82 1568.04 C 1338.76 1641.06 1282.42 1712.37 1223.88 1781.86 C 1201.54 1808.73 1179.55 1834.82 1156.16 1860.81 C 1128.37 1891.69 1113 1917.35 1073.36 1934.02 C 1028.73 1951.41 976.449 1944.84 939.891 1912.62 C 925.65 1900.06 911.647 1882.39 898.903 1867.97 C 871.682 1837.59 845.17 1806.59 819.388 1774.98 C 670.123 1593.48 533.581 1401.88 410.736 1201.55 C 312.776 1043.6 222.261 881.603 150.414 709.817 C 107.559 607.35 71.2782 493.738 155.556 399.242 C 188.556 362.241 246.145 330.132 289.247 305.228 C 453.336 209.378 634.341 146.009 822.384 118.581 C 873.224 111.5 920.482 108.642 971.64 105.426 z M 1046.58 1918.87 C 1084.49 1908.71 1095.6 1893.89 1121.57 1865.58 C 1144.92 1840.13 1166.95 1814 1189.41 1787.78 C 1334.47 1617.2 1466.29 1435.79 1583.71 1245.14 C 1622.43 1184.01 1660.11 1122.23 1696.75 1059.83 C 1760.52 951.269 1817.43 838.815 1867.13 723.132 C 1895.96 656.06 1936.79 566.724 1917.82 492.519 C 1902.08 430.942 1867.58 400.028 1816.53 366.272 C 1795.35 352.104 1773.64 338.726 1751.46 326.166 C 1520.1 193.194 1268.49 121.781 1001 127.477 C 757.34 132.666 518.913 199.133 307.711 320.745 C 220.072 370.495 118.639 426.845 127.255 544.282 C 132.994 622.512 177.402 718.606 210.872 789.536 C 293.212 961.587 387.33 1127.75 492.558 1286.83 C 588.697 1437.75 693.369 1583.06 806.065 1722.05 C 831.211 1753.27 856.806 1784.12 882.84 1814.6 C 905.028 1840.97 928.557 1868.19 952.857 1892.74 C 972.036 1912.13 999.599 1921.8 1026.98 1920.78 C 1033.54 1920.55 1040.09 1919.91 1046.58 1918.87 z" fill="rgb(27,29,58)" transform="translate(0,0)"></path>
<path d="M 988.594 160.465 C 1053.49 158.835 1118.43 161.43 1183 168.233 C 1330.55 185.895 1474.44 226.5 1609.46 288.58 C 1648.48 306.804 1686.72 326.644 1724.09 348.048 C 1765.13 371.123 1830.16 408.129 1859.08 444.256 C 1870.74 458.722 1879.24 475.467 1884.05 493.416 C 1890.56 517.444 1891.64 542.621 1887.22 567.119 C 1879.42 612.184 1847.73 685.639 1828.79 728.564 C 1796.25 804.078 1759.92 877.898 1719.93 949.742 C 1708.28 971.235 1694.29 997.287 1680.94 1017.3 C 1657.31 965.842 1636.54 936.327 1591.24 901.197 C 1584.16 741.189 1526.72 594.559 1440.24 461.628 C 1446.54 454.721 1451.6 448.762 1459.06 443.021 C 1466.36 442.71 1482.31 446.134 1486.54 440.265 C 1509.02 409.111 1475.14 380.027 1446.17 373.987 C 1435.89 371.844 1417.82 376.853 1406.85 377.805 C 1398.21 378.555 1388.46 380.321 1379.81 381.435 C 1369.73 371.767 1360.81 360.981 1350.22 350.927 C 1303.19 306.27 1246.92 263.446 1189.01 233.973 C 1173.11 225.882 1157.19 225.333 1143.93 219.162 C 1076.9 187.986 1015.95 171.833 943.037 162.19 C 958.217 161.463 973.403 160.888 988.594 160.465 z" fill="rgb(27,29,58)" transform="translate(0,0)"></path>
<path d="M 989.135 490.753 C 997.085 484.784 1007.7 480.23 1017.73 477.556 C 1031.83 473.796 1065.21 473.022 1068.91 491.744 C 1070.72 500.883 1062.13 512.094 1057.04 519.451 C 1075.66 529.029 1088.9 538.984 1110.52 549.244 C 1114.47 548.972 1115.23 549.018 1118.92 547.787 C 1115.21 545.957 1111.41 543.828 1107.75 541.865 C 1141.99 532.311 1140.51 514.69 1162.99 494.362 C 1187.6 472.102 1213.62 504.184 1227.89 523.705 L 1229.84 526.147 C 1237.41 522.877 1258.81 507.584 1268.51 501.876 C 1271.21 506.502 1281.1 519.752 1284.84 523.326 C 1280.61 516.067 1274.93 507.076 1269.17 500.971 C 1277.11 496.289 1284.55 490.711 1292.65 486.227 C 1296.23 490.373 1308.3 507.233 1310.14 508.816 C 1305.25 512.493 1238.71 562.008 1237.15 564.544 L 1237.11 565.943 C 1245.71 581.932 1276.38 599.774 1270.19 618.5 C 1263.59 638.509 1227.88 643.87 1212.97 655.728 C 1187.91 678.317 1189.17 721.621 1166.43 746.344 C 1158.96 754.462 1149.23 760.139 1138.45 762.274 C 1135.09 762.94 1125.09 763.029 1124.21 764.468 C 1129.1 780.549 1133.59 797.511 1138.8 813.325 C 1135.54 813.93 1121.33 815.595 1120.2 816.069 C 1116.52 814.713 1100.91 812.752 1095.63 811.628 C 1086.37 809.659 1078.95 806.74 1070.27 804.557 L 1068.13 807.15 C 1067.69 804.61 1068.15 803.971 1065.61 802.474 C 1043.85 789.628 1031.39 786.895 1030.61 758.962 C 1012.26 783.664 1038.13 800.288 1059.15 807.968 C 1068.03 813.609 1107.88 824.976 1118.41 823.519 C 1125.22 823.84 1130.95 824.745 1137.62 825.391 C 1142.43 831.187 1161.74 853.973 1162.41 859.81 C 1163.11 865.272 1162.83 866.162 1166.21 870.197 L 1168.2 871.179 C 1167.97 873.576 1164.44 882.179 1163.23 883.717 L 1162.34 881.823 C 1154.05 887.835 1132.71 910.026 1127.6 918.597 C 1136.34 914.712 1155.53 900.333 1164.02 894.19 C 1167.36 892.064 1167.53 891.956 1170.3 889.149 L 1174.68 887.155 L 1175.64 887.877 L 1173.83 894.837 C 1172.79 898.821 1172.79 899.102 1173.2 903.174 C 1177.62 908.706 1181.19 901.336 1186.68 903.636 L 1231.88 1051.43 C 1237.98 1070.14 1243.89 1088.91 1249.61 1107.74 C 1251.73 1114.7 1256.76 1130.02 1257.38 1136.54 C 1258.8 1140.95 1259.09 1141.09 1262.3 1144.6 C 1268.04 1148.06 1273.31 1170.54 1272.43 1176.98 C 1270.67 1177.94 1228.05 1184.41 1220.16 1186.37 C 1215.06 1187.22 1201.87 1190.56 1197.36 1192.56 C 1185.53 1195.83 1175.88 1199.51 1164.59 1203.96 C 1162.44 1195.88 1156.19 1179.86 1162.17 1173.83 L 1159.18 1168.77 C 1138.78 1086.36 1117.63 1004.14 1095.72 922.128 L 1018.64 850.174 C 1004.4 836.864 985.568 818.145 970.932 806.71 C 958.868 856.403 943.824 905.631 931.303 955.231 C 930.095 960.016 928.751 964.396 926.895 968.984 L 925.518 970.57 C 920.746 975.797 915.895 975.837 915.86 982.888 C 919.089 987.068 923.399 988.074 928.481 989.934 C 917.616 995.869 908.583 999.32 896.396 1001.71 C 891.359 1002.69 882.643 1003.64 879.37 1007.65 C 884.14 1013.19 901.852 1013.13 909.401 1014.06 C 901.981 1021.72 889.208 1031.78 880.665 1038.92 L 837.219 1075.69 L 783.912 1120.3 C 775.324 1127.58 743.087 1156.96 734.781 1157.47 C 728.419 1154.41 718.189 1151.22 710.851 1147.88 C 690.952 1138.83 680.124 1128.55 664.371 1114.22 C 677.576 1099.48 695.654 1085.24 710.049 1071.61 C 748.793 1034.99 783.102 1002.79 828.179 973.712 C 851.823 958.462 856.858 866.31 861.976 839.224 C 863.373 831.835 866.742 789.378 865.299 784.972 L 860.974 784.458 C 856.709 780.589 853.593 755.439 852.421 748.26 C 900.758 742.2 961.88 712.698 999.06 681.701 C 984.641 646.73 982.16 614.74 1010.74 586.056 C 1014.26 582.522 1016.36 582.068 1021.2 582.166 L 1023.47 583.245 C 1027.86 584.089 1029.48 584.593 1033.86 584.357 L 1030.93 585.395 C 1042.45 594.182 1103.69 610.737 1120.93 614.417 C 1122.09 612.829 1124.61 609.911 1124.85 608.283 C 1108.54 602.746 1087.66 601.125 1071.13 594.03 C 1070.53 593.774 1055.52 588.988 1055.64 588.957 C 1048.66 590.726 1047.45 591.918 1040.93 588.36 L 1038.56 584.881 L 1035.13 584.272 C 1037 583.061 1036.41 583.851 1037.14 582.09 C 1032.63 576.394 991.285 565.322 984.121 547.474 C 978.42 533.269 983.85 504.131 989.135 490.753 z M 1086.07 753.62 C 1090.68 758.133 1101.96 761.913 1108.37 763.259 L 1110.03 761.696 L 1110.25 761.845 C 1104.5 756.905 1095.83 752.485 1089.06 748.556 C 1054.74 724.593 1014.78 666.345 1010.61 623.787 C 1010.62 613.974 1011.04 611.445 1013.48 602.335 L 1010.3 602.699 C 1008.84 607.158 1007.41 610.957 1006.68 615.605 C 1000.85 652.143 1024.32 682.369 1043.73 711.442 C 1052.97 725.29 1071.65 745.015 1086.07 753.62 z M 904.073 770.465 C 902.075 772.103 900.496 773.026 899.19 775.134 C 913.105 775.368 924.571 771.128 937.125 765.67 C 968.126 752.193 996.886 741.117 1029.9 733.608 C 1027.01 730.002 1024.13 726.161 1021.3 722.486 C 994.992 724.585 964.662 740.575 941.09 751.869 C 933.428 755.541 908.244 766.052 904.073 770.465 z M 1097.46 634.896 C 1095.01 636.681 1093.33 637.13 1092.77 639.378 C 1096.4 644.937 1124.82 688.11 1127.35 689.919 C 1130.26 688.041 1131.44 687.991 1132.75 685.355 C 1124.18 673.679 1115.65 662.095 1107.44 650.147 C 1105.62 647.495 1098.96 636.335 1097.46 634.896 z M 896.204 814.677 L 911.748 809.564 C 924.084 805.311 938.738 799.813 951.428 797.597 C 946.181 795.607 942.26 793.837 936.622 793.215 C 923.384 796.091 906.436 805.804 896.204 814.677 z M 1211.64 606.19 C 1209.56 606.424 1205.92 606.51 1204.42 607.489 C 1201.54 611.733 1200.54 611.611 1200.59 615.735 L 1203.18 619.391 L 1207.14 622.96 C 1212.2 616.356 1212.84 614.357 1211.64 606.19 z M 1159.33 669.834 C 1161.42 661.844 1154.11 656.6 1147.66 653.551 C 1146.91 659.018 1151.92 664.537 1155.66 669.793 C 1156.76 669.825 1158.3 669.933 1159.33 669.834 z M 1188.21 588.048 C 1188.27 584.616 1188.68 581.892 1187.3 578.81 C 1179.22 575.762 1161.68 580.448 1163.87 567.132 L 1160.9 567.498 C 1158.3 572.377 1158.23 570.774 1158.88 575.348 C 1162.58 581.005 1168.37 582.311 1174.96 584.325 C 1180.17 588.041 1181.73 588.01 1188.21 588.048 z M 1159.91 961.258 C 1162.36 956.284 1167.54 947.826 1165.98 942.726 L 1163.41 942.155 C 1162.04 946.298 1158.06 958.656 1158.85 962.501 L 1159.91 961.258 z M 1283.16 494.577 C 1286.24 500.147 1292.69 511.927 1297.72 515.388 C 1295.08 510.57 1287.35 497.052 1283.16 494.577 z" fill="rgb(27,29,58)" transform="translate(0,0)"></path>
<path d="M 1160.9 567.498 L 1163.87 567.132 C 1161.68 580.448 1179.22 575.762 1187.3 578.81 C 1188.68 581.892 1188.27 584.616 1188.21 588.048 C 1181.73 588.01 1180.17 588.041 1174.96 584.325 C 1168.37 582.311 1162.58 581.005 1158.88 575.348 C 1158.23 570.774 1158.3 572.377 1160.9 567.498 z" fill="rgb(253,253,250)" fill-opacity="0.00784314" transform="translate(0,0)"></path>
<path d="M 1089.06 748.556 C 1095.83 752.485 1104.5 756.905 1110.25 761.845 L 1110.03 761.696 L 1108.37 763.259 C 1101.96 761.913 1090.68 758.133 1086.07 753.62 C 1087.23 752.323 1088.2 750.169 1089.06 748.556 z" fill="rgb(253,253,250)" fill-opacity="0.27451" transform="translate(0,0)"></path>
<path d="M 1010.3 602.699 L 1013.48 602.335 C 1011.04 611.445 1010.62 613.974 1010.61 623.787 C 1009.95 622.385 1009.86 619.656 1009.68 617.951 C 1008.26 616.12 1008.87 616.766 1006.68 615.605 C 1007.41 610.957 1008.84 607.158 1010.3 602.699 z" fill="rgb(253,253,250)" fill-opacity="0.286275" transform="translate(0,0)"></path>
<path d="M 1292.65 486.227 C 1296.23 490.373 1308.3 507.233 1310.14 508.816 C 1305.25 512.493 1238.71 562.008 1237.15 564.544 L 1237.11 565.943 C 1233.32 569.355 1231.28 571.448 1226.83 574.054 C 1224.27 573.107 1224.46 573.182 1221.76 573.703 C 1216.76 577.292 1211.7 580.794 1206.57 584.208 C 1199.82 588.536 1198.06 587.156 1194.3 589.172 C 1193.24 588.401 1189.8 588.243 1188.21 588.048 C 1188.27 584.616 1188.68 581.892 1187.3 578.81 C 1179.22 575.762 1161.68 580.448 1163.87 567.132 L 1160.9 567.498 C 1146.74 562.155 1131.89 552.406 1118.92 547.787 C 1115.21 545.957 1111.41 543.828 1107.75 541.865 C 1141.99 532.311 1140.51 514.69 1162.99 494.362 C 1187.6 472.102 1213.62 504.184 1227.89 523.705 L 1229.84 526.147 C 1237.41 522.877 1258.81 507.584 1268.51 501.876 C 1271.21 506.502 1281.1 519.752 1284.84 523.326 C 1280.61 516.067 1274.93 507.076 1269.17 500.971 C 1277.11 496.289 1284.55 490.711 1292.65 486.227 z M 1297.72 515.388 C 1295.08 510.57 1287.35 497.052 1283.16 494.577 C 1286.24 500.147 1292.69 511.927 1297.72 515.388 z" fill="rgb(27,29,58)" transform="translate(0,0)"></path>
<path d="M 1201.69 544.661 C 1209.2 554.459 1213.65 564.267 1221.76 573.703 C 1216.76 577.292 1211.7 580.794 1206.57 584.208 C 1199.82 588.536 1198.06 587.156 1194.3 589.172 C 1193.24 588.401 1189.8 588.243 1188.21 588.048 C 1188.27 584.616 1188.68 581.892 1187.3 578.81 C 1179.22 575.762 1161.68 580.448 1163.87 567.132 L 1165.79 568.463 L 1168.77 566.997 C 1171.05 563.936 1175.63 561.469 1178.88 559.635 L 1180.98 558.885 L 1183.07 557.768 C 1185.24 555.307 1188.49 553.563 1191.35 551.721 L 1193.31 550.719 L 1201.69 544.661 z" fill="rgb(27,29,58)" transform="translate(0,0)"></path>
<path d="M 1183.07 557.768 C 1187.08 561.39 1193.65 568.385 1195.66 573.31 L 1195.97 573.712 C 1198.39 576.185 1202.68 580.141 1203.56 583.303 L 1206.57 584.208 C 1199.82 588.536 1198.06 587.156 1194.3 589.172 C 1193.24 588.401 1189.8 588.243 1188.21 588.048 C 1188.27 584.616 1188.68 581.892 1187.3 578.81 C 1179.22 575.762 1161.68 580.448 1163.87 567.132 L 1165.79 568.463 L 1168.77 566.997 C 1171.05 563.936 1175.63 561.469 1178.88 559.635 L 1180.98 558.885 L 1183.07 557.768 z" fill="rgb(27,29,58)" transform="translate(0,0)"></path>
<path d="M 1168.77 566.997 C 1171.05 563.936 1175.63 561.469 1178.88 559.635 C 1179.99 564.309 1180.65 563.83 1179.39 567.693 C 1175.6 569.425 1172.81 568.406 1168.77 566.997 z" fill="rgb(57,58,87)" transform="translate(0,0)"></path>
<path d="M 1183.07 557.768 C 1187.08 561.39 1193.65 568.385 1195.66 573.31 C 1188.07 569.459 1187.22 563.03 1180.98 558.885 L 1183.07 557.768 z" fill="rgb(57,58,87)" transform="translate(0,0)"></path>
<path d="M 1195.97 573.712 C 1198.39 576.185 1202.68 580.141 1203.56 583.303 L 1202.37 583.131 C 1198.94 580.928 1197 577.556 1195.97 573.712 z" fill="rgb(87,89,110)" transform="translate(0,0)"></path>
<path d="M 1193.31 550.719 C 1196.27 555.627 1208.35 573.505 1209.39 576.79 C 1203.36 569.169 1196.25 560.075 1191.35 551.721 L 1193.31 550.719 z" fill="rgb(87,89,110)" transform="translate(0,0)"></path>
<path d="M 1163.87 567.132 L 1163.65 565.942 C 1166.39 561.422 1195.64 544.977 1201.68 541.855 L 1201.69 544.661 L 1193.31 550.719 L 1191.35 551.721 C 1188.49 553.563 1185.24 555.307 1183.07 557.768 L 1180.98 558.885 L 1178.88 559.635 C 1175.63 561.469 1171.05 563.936 1168.77 566.997 L 1165.79 568.463 L 1163.87 567.132 z" fill="rgb(253,253,250)" transform="translate(0,0)"></path>
<path d="M 1201.68 541.855 C 1203.8 543.065 1219.7 568.639 1223.1 573.116 C 1227.64 569.877 1231.94 566.289 1237.15 564.544 L 1237.11 565.943 C 1233.32 569.355 1231.28 571.448 1226.83 574.054 C 1224.27 573.107 1224.46 573.182 1221.76 573.703 C 1213.65 564.267 1209.2 554.459 1201.69 544.661 L 1201.68 541.855 z" fill="rgb(114,115,131)" transform="translate(0,0)"></path>
<path d="M 1221.78 532.407 C 1227.69 541.191 1232.16 546.238 1237.7 555.722 C 1232.34 549.152 1219.88 537.336 1219.45 530.103 C 1221.05 526.761 1224.5 525.519 1227.89 523.705 L 1229.84 526.147 C 1227.42 528.581 1224.59 530.391 1221.78 532.407 z" fill="rgb(87,89,110)" transform="translate(0,0)"></path>
<path d="M 1247.83 519.473 L 1249.01 518.672 C 1253.35 524.973 1261.33 535.064 1264.42 541.501 L 1262.01 540.547 C 1258.3 535.64 1249.76 524.599 1247.83 519.473 z" fill="rgb(87,89,110)" transform="translate(0,0)"></path>
<path d="M 1256.88 511.891 C 1263.17 514.199 1270.77 526.651 1273.72 532.603 L 1272.38 532.675 C 1267.02 524.899 1262.86 519.168 1256.88 511.891 z" fill="rgb(87,89,110)" transform="translate(0,0)"></path>
<path d="M 1283.16 494.577 C 1287.35 497.052 1295.08 510.57 1297.72 515.388 C 1292.69 511.927 1286.24 500.147 1283.16 494.577 z" fill="rgb(87,89,110)" fill-opacity="0.984314" transform="translate(0,0)"></path>
<path d="M 1214.81 542.692 C 1219.49 545.211 1223.68 553.582 1226.56 558.436 L 1225.07 558.774 C 1221.88 555.058 1217.47 547.162 1214.81 542.692 z" fill="rgb(114,115,131)" transform="translate(0,0)"></path>
<path d="M 1257.38 1136.54 C 1258.8 1140.95 1259.09 1141.09 1262.3 1144.6 C 1268.04 1148.06 1273.31 1170.54 1272.43 1176.98 C 1270.67 1177.94 1228.05 1184.41 1220.16 1186.37 C 1215.06 1187.22 1201.87 1190.56 1197.36 1192.56 C 1185.53 1195.83 1175.88 1199.51 1164.59 1203.96 C 1162.44 1195.88 1156.19 1179.86 1162.17 1173.83 L 1159.18 1168.77 C 1192.11 1150.43 1220.55 1141.78 1257.38 1136.54 z" fill="rgb(27,29,58)" transform="translate(0,0)"></path>
<path d="M 1257.38 1136.54 C 1258.8 1140.95 1259.09 1141.09 1262.3 1144.6 C 1249.06 1145.52 1237.25 1146.38 1224.05 1149.74 C 1215.12 1152.01 1203.45 1155.39 1194.51 1158.91 C 1193.68 1158.52 1192.85 1158.12 1192.02 1157.73 C 1184.51 1162.13 1170.25 1171.61 1162.17 1173.83 L 1159.18 1168.77 C 1192.11 1150.43 1220.55 1141.78 1257.38 1136.54 z" fill="rgb(253,253,250)" transform="translate(0,0)"></path>
<path d="M 1127.2 616.189 C 1133.87 616.465 1147.45 618.76 1151.4 618.409 L 1154.02 615.979 C 1156.75 616.471 1157.37 616.665 1159.99 617.601 C 1160.64 621.017 1160.86 619.45 1159.5 622.49 C 1157.1 622.756 1158.27 622.783 1155.99 622.452 L 1153.51 624.816 L 1153.62 625.657 C 1156.49 625.208 1157.99 624.93 1160.87 624.185 C 1163.11 624.95 1164.82 625.474 1166.96 626.499 C 1158.98 632.961 1146.5 640.587 1139.6 646.928 C 1137.38 637.976 1136.27 628.158 1128.59 621.685 L 1127.2 616.189 z" fill="rgb(27,29,58)" transform="translate(0,0)"></path>
<path d="M 1109.16 878.949 C 1121.35 873.954 1150.36 861.816 1162.41 859.81 C 1163.11 865.272 1162.83 866.162 1166.21 870.197 C 1150.79 875.548 1125.66 877.345 1109.16 878.949 z" fill="rgb(253,253,250)" transform="translate(0,0)"></path>
<path d="M 1118.92 547.787 C 1131.89 552.406 1146.74 562.155 1160.9 567.498 C 1158.3 572.377 1158.23 570.774 1158.88 575.348 C 1162.58 581.005 1168.37 582.311 1174.96 584.325 L 1175.51 585.769 L 1174.67 586.446 C 1168.96 585.378 1163.61 582.845 1158.19 580.62 C 1156.11 577.938 1156.85 578.368 1156.99 573.953 C 1155.46 571.684 1117.94 553.977 1110.52 549.244 C 1114.47 548.972 1115.23 549.018 1118.92 547.787 z" fill="rgb(253,253,250)" transform="translate(0,0)"></path>
<path d="M 1159.99 617.601 C 1174.77 624.701 1177.16 625.933 1193.19 628.283 C 1196.82 624.623 1198.88 622.391 1203.18 619.391 L 1207.14 622.96 C 1203.57 632.831 1184.28 635.275 1175.53 631.527 C 1173.12 630.477 1170.73 629.368 1168.38 628.199 L 1166.96 626.499 C 1164.82 625.474 1163.11 624.95 1160.87 624.185 C 1157.99 624.93 1156.49 625.208 1153.62 625.657 L 1153.51 624.816 L 1155.99 622.452 C 1158.27 622.783 1157.1 622.756 1159.5 622.49 C 1160.86 619.45 1160.64 621.017 1159.99 617.601 z" fill="rgb(253,253,250)" transform="translate(0,0)"></path>
<path d="M 1221.76 573.703 C 1224.46 573.182 1224.27 573.107 1226.83 574.054 C 1219.64 578.829 1206.07 586.649 1202.1 593.643 C 1202.11 595.063 1201.85 595.569 1202.4 596.481 L 1204.87 593.596 L 1206.65 593.962 C 1209.2 598.327 1210.04 601.445 1211.64 606.19 C 1209.56 606.424 1205.92 606.51 1204.42 607.489 C 1199.58 599.495 1197.55 598.311 1194.3 589.172 C 1198.06 587.156 1199.82 588.536 1206.57 584.208 C 1211.7 580.794 1216.76 577.292 1221.76 573.703 z" fill="rgb(253,253,250)" transform="translate(0,0)"></path>
<path d="M 925.518 970.57 C 921.205 965.735 916.239 922.78 915.112 913.738 C 920.392 928.465 924.816 953.485 926.895 968.984 L 925.518 970.57 z" fill="rgb(253,253,250)" transform="translate(0,0)"></path>
<path d="M 1166.96 626.499 L 1168.38 628.199 C 1163.7 631.697 1144.41 647.227 1140.93 648.329 L 1139.6 646.928 C 1146.5 640.587 1158.98 632.961 1166.96 626.499 z" fill="rgb(253,253,250)" transform="translate(0,0)"></path>
<path d="M 1127.2 616.189 L 1128.59 621.685 C 1124.87 624.189 1122.44 626.423 1118.08 624.249 L 1118.47 622.02 C 1121.41 618.943 1123.38 618.228 1127.2 616.189 z" fill="rgb(253,253,250)" transform="translate(0,0)"></path>
<path d="M 1021.2 582.166 L 1023.47 583.245 C 1018.42 591.132 1017.13 593.724 1013.48 602.335 L 1010.3 602.699 C 1013.21 595.756 1017.44 588.755 1021.2 582.166 z" fill="rgb(253,253,250)" transform="translate(0,0)"></path>
<path d="M 874.822 775.373 C 881.102 773.722 899.295 768.395 904.073 770.465 C 902.075 772.103 900.496 773.026 899.19 775.134 C 895.036 777.212 880.31 775.712 874.822 775.373 z" fill="rgb(253,253,250)" transform="translate(0,0)"></path>
<path d="M 1163.41 942.155 L 1165.98 942.726 C 1167.54 947.826 1162.36 956.284 1159.91 961.258 L 1158.85 962.501 C 1158.06 958.656 1162.04 946.298 1163.41 942.155 z" fill="rgb(253,253,250)" fill-opacity="0.0117647" transform="translate(0,0)"></path>
<path d="M 1343.52 1538.5 L 1345.19 1538.58 C 1343.26 1543.04 1325.36 1566.2 1321.62 1571.21 C 1261.37 1651.43 1197.99 1729.26 1131.62 1804.51 L 1094.85 1846.66 C 1088.71 1853.64 1080.15 1863.86 1073.42 1869.86 C 1058.22 1883.37 1038.24 1890.21 1017.95 1888.85 C 982.963 1886.65 962.937 1856.91 941.657 1832.57 L 895.222 1779.41 L 826.379 1695.53 C 813.455 1679.87 790.361 1652.9 779.488 1636.6 C 800.528 1632.37 824.81 1629.02 846.32 1625.12 L 1097.95 1581.09 L 1254.17 1553.44 C 1279.88 1548.88 1318.85 1540.76 1343.52 1538.5 z" fill="rgb(27,29,58)" transform="translate(0,0)"></path>
<path d="M 852.757 259.493 C 914.292 259.664 990.636 269.306 1047.46 293.655 C 1026.08 304.957 1010.02 311.15 988.683 324.438 C 955.618 317.057 928.594 310.521 894.437 307.893 C 629.955 287.543 401.895 493.071 383.053 756.091 C 373.346 875.817 411.898 994.457 490.131 1085.61 C 513.284 1111.1 531.033 1126.58 558.845 1146.67 C 550.932 1155.83 535.597 1174.25 526.871 1181.84 C 509.668 1170.78 492.44 1154.99 477.612 1141.15 C 384.86 1054.55 334.828 921.914 334.05 795.611 C 333.154 650.202 386.911 520.41 487.493 416.235 C 583.452 317.337 714.964 260.902 852.757 259.493 z" fill="rgb(27,29,58)" transform="translate(0,0)"></path>
<path d="M 835.382 416.474 C 852.691 415.686 875.044 415.548 892.078 417.236 C 884.074 434.403 878.362 446.337 871.062 464.136 C 864.549 463.706 858.023 463.499 851.496 463.514 C 769.653 464.239 689.549 500.812 632.59 559.225 C 571.96 620.944 538.882 704.568 540.887 791.062 C 542.09 864.76 568.796 937.538 616.596 993.964 C 632.622 1012.88 645.878 1023.01 662.86 1039.48 L 652.344 1050.06 L 629.071 1074.27 C 547.434 1002.15 500.837 917.321 494.119 806.995 C 487.821 708.701 520.971 611.952 586.227 538.175 C 649.96 466.312 739.523 422.565 835.382 416.474 z" fill="rgb(27,29,58)" transform="translate(0,0)"></path>
<path d="M 1137.27 252.423 C 1182.56 247.858 1223.88 281.036 1237.33 323.164 C 1238.9 328.101 1240.85 337.108 1244.72 340.19 C 1248.57 339.497 1247.39 339.691 1250.78 336.811 L 1251.38 336.973 C 1253.84 346.307 1250.11 358.447 1239.62 360.787 L 1238.94 360.02 L 1242.58 357.88 L 1242.68 356.461 C 1238.02 351.575 1225.53 344.145 1219.47 340.177 C 1206.65 350.73 1199.54 362.904 1195.74 379.002 C 1194.61 383.754 1193.41 390.521 1191.18 394.514 L 1188.92 395.118 C 1184.21 394.043 1181.33 391.646 1177.26 388.96 C 1175.31 394.811 1173.6 401.718 1172 407.744 C 1168.95 406.461 1165.89 405.197 1162.82 403.953 C 1140.55 426.315 1141.6 420.637 1117.21 407.995 C 1115.12 404.211 1112.81 398.216 1111.07 394.084 L 1112.68 393.501 C 1115.93 392.301 1118.79 391.415 1120.11 388.586 C 1117.97 386.033 1119.27 386.657 1116.25 386.327 C 1112.58 388.468 1111.37 392.028 1108.71 395.15 C 1103.73 401.015 1124.79 485.496 1108.9 512.603 C 1099.7 528.291 1087.93 512.257 1076.91 515.695 C 1076.4 515.856 1075.89 516.063 1075.38 516.247 L 1074.23 515.623 C 1076.04 513.067 1083.47 503.011 1083.56 500.588 C 1084.79 466.24 1111.68 406.783 1092.76 375.755 C 1074.2 345.326 1019.66 350.931 994.114 369.36 C 933.35 413.196 905.68 499.878 890.861 570.5 C 906.677 583.259 924.318 586.124 943.982 585.147 C 922.562 591.692 909.239 591.519 887.923 586.194 C 885.577 598.646 883.644 609.759 881.95 622.308 C 899.175 627.01 912.55 627.386 929.879 624.717 C 932.165 624.11 932.032 624.154 934.396 624.403 C 923.343 635.051 893.958 638.244 879.046 635.703 C 877.09 645.224 875.277 654.774 873.607 664.349 C 906.292 673.431 937.806 660.003 966.636 645.246 L 966.864 645.781 C 961.08 650.887 954.991 655.638 948.631 660.007 C 925.414 675.765 898.287 685.72 870.132 680.484 C 869.05 686.806 868.402 694.617 867.7 701.11 C 910.544 699.127 947.789 678.543 985.237 659.391 C 952.514 692.474 890.608 723.969 843.65 726.325 C 845.422 713.154 847.277 699.995 849.217 686.849 C 864.494 583.848 890.972 429.99 978.825 360.792 C 1007.13 338.501 1036.46 337.764 1070.32 343.137 L 1070.9 342.035 L 1067.85 339.961 L 1067.68 338.577 C 1069.57 337.045 1071.44 335.491 1073.29 333.914 C 1071.7 330.359 1073.14 334.583 1069.69 333.005 C 1071.27 323.451 1081.12 314.073 1087.11 306.924 C 1097.4 294.645 1111.9 288.619 1123.96 278.622 C 1116.63 280.273 1108.07 282.852 1100.72 284.868 C 1102.43 281.569 1104.22 278.31 1106.09 275.094 C 1113.88 261.803 1122.9 256.17 1137.27 252.423 z M 1165.07 368.397 C 1167.24 366.618 1169.6 362.744 1169.74 359.855 C 1167.91 353.447 1162.15 350.692 1156.58 347.014 C 1155.91 350.935 1154.97 353.027 1153.56 356.781 C 1150.55 359.224 1145.34 366.243 1142.7 369.575 L 1143.26 370.004 C 1150.21 366.269 1151.21 364.233 1156.19 357.901 L 1155.68 356.801 L 1157.68 355.061 C 1162.27 357.783 1157.94 362.609 1165.07 368.397 z" fill="rgb(27,29,58)" transform="translate(0,0)"></path>
<path d="M 1156.19 357.901 C 1151.21 364.233 1150.21 366.269 1143.26 370.004 L 1142.7 369.575 C 1145.34 366.243 1150.55 359.224 1153.56 356.781 L 1155.68 356.801 L 1156.19 357.901 z" fill="rgb(253,253,250)" fill-opacity="0.737255" transform="translate(0,0)"></path>
<path d="M 1416.27 1435.41 L 1417.29 1435.34 C 1415.97 1440.58 1385.34 1483.46 1380.68 1489.34 C 1354.67 1495.66 1313.35 1501.06 1286.2 1505.75 L 1110.83 1536.51 L 826.329 1585.93 C 801.796 1590.07 776.473 1595.09 752.095 1598.82 L 738.403 1581.04 C 732.07 1572.09 725.143 1563.73 718.809 1554.7 C 736.161 1550.57 765.984 1546.36 784.676 1543.05 L 934.387 1517.08 C 1094.87 1489 1255.5 1461.78 1416.27 1435.41 z" fill="rgb(27,29,58)" transform="translate(0,0)"></path>
<path d="M 827.642 574.329 C 830.933 574.017 831.093 573.427 833.498 574.735 C 832.313 583.364 822.573 615.511 819.643 624.483 C 783.646 636.511 758.189 652.058 735.079 683.746 C 708.641 719.964 697.744 765.233 704.804 809.514 C 713.95 865.843 744.538 901.007 788.866 933.017 C 779.723 939.947 756.346 959.267 748.525 964.249 C 747.936 963.857 747.347 963.466 746.758 963.074 C 700.186 929.614 668.243 879.547 657.525 823.213 C 636.112 705.212 708.084 594.985 827.642 574.329 z" fill="rgb(27,29,58)" transform="translate(0,0)"></path>
<path d="M 499.828 264.236 C 499.502 266.004 476.14 282.816 472.978 285.359 C 350.87 383.591 263.142 523.828 229.058 676.85 C 225.165 694.329 222.971 712.128 219.12 729.593 C 215.787 722.006 212.587 714.086 209.376 706.423 C 203.546 689.451 194.151 669.138 187.606 651.174 C 197.54 613.998 204.044 591.59 218.642 554.416 C 246.018 484.665 284.203 419.658 331.796 361.782 C 336.301 356.259 351.588 336.391 356.566 333.449 C 400.922 307.232 453.068 284.656 499.828 264.236 z" fill="rgb(27,29,58)" transform="translate(0,0)"></path>
<path d="M 1345.11 509.141 C 1353.72 517.695 1366.52 539.082 1373.65 550.389 C 1425.06 631.897 1461.06 726.784 1466.87 823.446 C 1457.27 819.699 1447.7 815.89 1438.15 812.019 C 1429.83 808.94 1421.58 805.68 1413.39 802.241 C 1406.39 710.265 1359.93 610.851 1304.84 538.288 C 1318.07 528.552 1331.57 518.365 1345.11 509.141 z" fill="rgb(27,29,58)" transform="translate(0,0)"></path>
<path d="M 1249.69 1197.96 L 1267.24 1192.11 C 1280.53 1203.95 1291.44 1214.82 1306.96 1222.71 C 1330.96 1234.91 1358.58 1220.15 1360.97 1255.22 C 1361.05 1256.33 1361.23 1256.66 1361.6 1257.85 C 1358.61 1259.19 1353.01 1261.95 1350.2 1259.29 C 1344.27 1258.42 1340.28 1259.19 1334.41 1259.91 C 1305.19 1261.01 1280.21 1261.34 1250.68 1257 C 1241.39 1255.64 1192.43 1267.67 1184.48 1259.44 C 1179.56 1254.33 1187.96 1220.09 1187.39 1211.92 C 1187.29 1209.98 1190.64 1208.86 1192.13 1208.18 C 1198.12 1206.81 1208.91 1204.66 1214.27 1202.65 C 1224.82 1209.5 1229.44 1212.91 1241.75 1215.96 C 1243.99 1210.43 1246.78 1202.95 1249.69 1197.96 z" fill="rgb(27,29,58)" transform="translate(0,0)"></path>
<path d="M 624.353 1150.11 C 633.97 1159.87 641.464 1172.68 648.329 1184.46 C 657.495 1184.79 669.595 1183.93 678.916 1183.46 C 679.191 1190.47 679.261 1199.31 682.184 1205.79 C 692.017 1223.84 721.344 1219.08 738.51 1226.1 C 749.697 1230.68 755.868 1243.62 751.054 1254.38 C 748.262 1255.73 727.417 1255.29 722.785 1255.3 C 707.789 1255.25 684.743 1255.68 670.649 1252.52 C 653.335 1248.63 634.731 1227.93 620.503 1216.88 C 611.415 1209.82 602.007 1202.39 592.719 1195.3 C 604.853 1174.69 604.5 1161.97 624.353 1150.11 z" fill="rgb(27,29,58)" transform="translate(0,0)"></path>
<path d="M 848.793 1313.47 C 865.432 1313.61 882.546 1315.74 891.356 1331.76 C 902.051 1351.2 894.435 1369.42 875.817 1379.09 C 883.518 1389.51 890.881 1399.45 898.109 1410.2 L 868.935 1409.9 L 863.893 1402.34 L 852.349 1383.13 C 847.079 1382.98 841.797 1383.23 836.523 1383.4 C 836.222 1392.16 836.115 1400.93 836.201 1409.7 L 811.017 1409.41 C 811.207 1377.63 811.203 1345.85 811.006 1314.07 C 823.603 1313.98 836.199 1313.78 848.793 1313.47 z M 835.515 1362.31 C 846.351 1362.98 855.933 1363.89 865.933 1358.94 C 881.639 1332.9 851.027 1334.91 835.36 1335.08 C 835.332 1343.53 835.014 1354.04 835.515 1362.31 z" fill="rgb(27,29,58)" transform="translate(0,0)"></path>
<path d="M 1363.01 1314.06 L 1383.87 1314.06 C 1398.68 1330.32 1413.67 1347.99 1428.05 1364.72 L 1428.02 1314.6 C 1435.67 1313.91 1445.5 1314.09 1453.35 1314.02 C 1453.5 1343.55 1451.5 1377.07 1452.96 1406.15 L 1452.82 1407.12 C 1450.42 1409 1437.33 1408.53 1433.4 1408.56 C 1418.95 1392.3 1404.42 1376.12 1389.8 1360.01 C 1388.51 1371.03 1389.04 1397.15 1388.95 1408.98 L 1363.12 1408.96 L 1363.01 1314.06 z" fill="rgb(27,29,58)" transform="translate(0,0)"></path>
<path d="M 775.637 1313.54 L 778.398 1313.76 C 780.247 1318.37 778.988 1398.37 778.891 1410.05 L 752.646 1409.58 C 752.509 1397.1 752.447 1384.61 752.459 1372.13 C 740.8 1371.69 727.311 1372.02 715.504 1372.07 C 714.725 1382.75 715.425 1398.22 715.284 1409.54 C 708.772 1409.49 702.26 1409.41 695.749 1409.3 C 693.206 1409.17 693.081 1409.06 690.564 1408.5 C 689.598 1402.79 689.984 1382.42 689.969 1375.77 L 689.596 1314.43 C 697.554 1313.92 707.264 1314.1 715.359 1314.03 C 715.882 1325.01 715.425 1339.63 715.328 1350.83 L 753.01 1350.96 C 753.171 1338.71 753.055 1326.23 753.063 1313.97 C 760.355 1313.63 768.286 1313.66 775.637 1313.54 z" fill="rgb(27,29,58)" transform="translate(0,0)"></path>
<path d="M 1274.76 1313.49 C 1282.7 1312.85 1291.62 1313.07 1299.66 1313.08 C 1304.29 1321.38 1311.46 1338.41 1315.76 1347.81 C 1325.22 1368.2 1334.46 1388.7 1343.5 1409.28 C 1333.87 1409.76 1324.63 1409.57 1315.02 1409.44 C 1312.7 1402.53 1310.71 1397.07 1307.92 1390.34 C 1305.33 1390.38 1302.51 1390.3 1299.9 1390.28 L 1266.78 1390.02 L 1257.87 1409.78 L 1230.44 1410.04 C 1234.7 1399.71 1241.83 1386.13 1246.77 1375.54 C 1256.27 1354.94 1265.6 1334.25 1274.76 1313.49 z M 1274.39 1371.66 L 1291.25 1371.68 L 1300.35 1371.56 C 1296.03 1360.29 1291.42 1351.98 1287.22 1341.71 C 1282.4 1351.91 1278.21 1360.94 1274.39 1371.66 z" fill="rgb(27,29,58)" transform="translate(0,0)"></path>
<path d="M 1251.96 650.765 C 1254.7 652.2 1259.47 660.752 1261.09 663.792 C 1278.65 696.758 1295.18 734.011 1302.87 770.722 C 1292.56 768.178 1282.19 765.89 1271.77 763.859 C 1264.05 762.707 1256.25 761.147 1248.57 759.698 C 1237.51 724.298 1230.54 706.556 1212.34 674.103 L 1251.96 650.765 z" fill="rgb(27,29,58)" transform="translate(0,0)"></path>
<path d="M 1011.1 1312.5 C 1028.56 1311.5 1039.14 1313.36 1054.92 1321 C 1052.25 1327.61 1049.76 1334.29 1047.45 1341.02 C 1033.65 1335.42 1015.8 1327.46 1002.99 1337.68 C 1000.94 1339.31 1001.31 1339.3 1001.11 1341.52 C 1004.2 1346.93 1018.89 1351.44 1025.55 1352.84 C 1048.72 1357.69 1069.85 1372.96 1052.64 1397.92 C 1045.85 1407.76 1031.32 1409.61 1019.7 1410.85 C 1001.6 1410.86 990.452 1407.56 974.676 1399.19 C 978.149 1392.74 981.695 1386.33 985.314 1379.96 C 995.224 1386.61 1028.91 1399.65 1033.15 1382.52 C 1030.4 1376.97 1015.81 1372.73 1010.02 1371.88 C 964.882 1365.25 964.318 1320.59 1011.1 1312.5 z" fill="rgb(27,29,58)" transform="translate(0,0)"></path>
<path d="M 615.666 1312.3 C 638.649 1311.04 647.668 1313.36 665.983 1327.34 C 659.279 1333.75 655.532 1337.89 649.586 1345.04 C 645.814 1342.06 641.989 1338.33 637.432 1336.47 C 623.61 1330.83 604.949 1336.23 600.986 1352.02 C 597.014 1367.84 603.437 1382.53 620.092 1386.83 C 634.185 1390.47 639.54 1384.19 650.57 1377.55 L 651.799 1378.74 C 656.732 1384.31 660.717 1388.29 666.114 1393.45 C 659.136 1400.7 651.663 1405.45 642.013 1408.35 C 627.551 1412.83 611.887 1411.23 598.633 1403.91 C 587.173 1397.56 578.757 1386.85 575.288 1374.21 C 571.753 1361.06 573.69 1347.03 580.658 1335.32 C 588.922 1321.69 600.99 1316.02 615.666 1312.3 z" fill="rgb(27,29,58)" transform="translate(0,0)"></path>
<path d="M 1440.74 401.068 C 1442 397.549 1441.57 396.579 1444.03 395.204 C 1444.41 396.648 1444.61 398.063 1444.86 399.541 C 1447.81 399.445 1447.51 399.337 1450.45 398.571 C 1452.76 400.386 1452.63 400.29 1454.2 402.786 L 1454.33 405.328 C 1458.57 408.857 1467.86 413.383 1463.69 419.461 C 1459.88 420.158 1455.49 417.751 1451.7 416.188 C 1440 427.766 1427.5 437.718 1415.2 449.874 C 1410.21 448.293 1404.13 446.149 1399.1 445.097 C 1384.73 452.95 1376.28 462.187 1363.37 470.535 C 1360.46 466.164 1353.86 456.096 1349.36 453.454 C 1353.26 460.021 1357.61 465.103 1362.39 471.038 C 1354.5 476.847 1345.04 484.187 1337.08 489.626 C 1335.24 483.907 1325.33 471.958 1321.39 467.008 C 1329.61 461.426 1371.89 436.426 1374.71 431.23 C 1377.9 425.361 1374.94 418.739 1377.82 413.223 C 1379.81 412.841 1381.76 412.581 1383.78 412.447 C 1386.4 407.394 1385.72 407.14 1389.99 405.028 C 1391.15 407.348 1391.68 408.246 1393.13 410.4 L 1395.02 410.739 C 1399.27 409.123 1400.25 406.43 1402.82 402.854 C 1409.48 400.88 1406.62 404.082 1413.19 407.249 C 1414.61 404.811 1414.39 402.973 1416 400.265 C 1419.12 399.579 1418.92 399.484 1421.91 400.501 L 1423.28 403.651 C 1430.61 404.484 1428.2 398.288 1433.83 396.594 C 1438.07 397.576 1437.06 397.64 1440.74 401.068 z M 1374.87 458.398 C 1371.74 453.723 1366.94 445.744 1361.79 443.569 C 1365.1 447.917 1370.43 455.842 1374.87 458.398 z" fill="rgb(27,29,58)" transform="translate(0,0)"></path>
<path d="M 1440.74 401.068 C 1442 397.549 1441.57 396.579 1444.03 395.204 C 1444.41 396.648 1444.61 398.063 1444.86 399.541 C 1447.81 399.445 1447.51 399.337 1450.45 398.571 C 1452.76 400.386 1452.63 400.29 1454.2 402.786 C 1451.55 405.094 1451.8 405.078 1448.42 405.866 L 1446.67 405.462 C 1445.05 401.809 1444.21 402.332 1440.74 401.068 z" fill="rgb(27,29,58)" transform="translate(0,0)"></path>
<path d="M 1446.67 405.462 L 1448.42 405.866 C 1444.28 412.569 1441.25 416.645 1432.8 416.495 C 1439.16 412.732 1442.24 411.393 1446.67 405.462 z" fill="rgb(87,89,110)" transform="translate(0,0)"></path>
<path d="M 1391.44 424.125 C 1395.95 419.634 1405.08 413.264 1411.14 411.444 L 1409.66 412.779 C 1405.03 416.887 1399.74 417.324 1398.5 423.996 L 1399.65 425.115 C 1408.08 424.002 1413.4 417.93 1420.05 414.636 L 1421.36 415.666 L 1420.69 417.4 C 1414.57 419.434 1407.97 424.987 1402.88 429.064 C 1396.56 426.945 1400.46 422.946 1391.44 424.125 z" fill="rgb(87,89,110)" transform="translate(0,0)"></path>
<path d="M 1332.78 459.531 C 1339.35 462.659 1344.33 471.198 1348.31 477.271 C 1342.31 474.14 1336.65 465.142 1332.78 459.531 z" fill="rgb(87,89,110)" transform="translate(0,0)"></path>
<path d="M 1361.79 443.569 C 1366.94 445.744 1371.74 453.723 1374.87 458.398 C 1370.43 455.842 1365.1 447.917 1361.79 443.569 z" fill="rgb(114,115,131)" fill-opacity="0.980392" transform="translate(0,0)"></path>
<path d="M 1384.1 430.954 C 1386.21 427.564 1387.64 425.202 1391.44 424.125 C 1390.12 428.091 1387.69 429.089 1384.1 430.954 z" fill="rgb(57,58,87)" transform="translate(0,0)"></path>
<path d="M 1226.78 382.844 C 1248.43 398.2 1284.25 432.758 1300.87 453.218 C 1290.51 459.851 1280.34 466.787 1270.39 474.017 L 1261.81 479.936 C 1247.73 461.518 1228.22 446.279 1211.04 430.779 C 1207.37 427.467 1202.02 423.617 1199.42 419.635 L 1203.03 418.448 C 1211.75 415.558 1213.09 412.294 1217.11 404.107 C 1220.52 397.136 1223.61 389.931 1226.78 382.844 z" fill="rgb(27,29,58)" transform="translate(0,0)"></path>
<path d="M 1075.11 1313.91 C 1103.05 1314.45 1132.55 1313.98 1160.62 1314 C 1160.69 1320.91 1160.38 1328.21 1160.18 1335.14 L 1130.31 1335.22 C 1129.78 1348.86 1130.3 1365.63 1130.36 1379.5 C 1130.56 1389.63 1130.52 1399.77 1130.23 1409.9 L 1103.89 1409.12 C 1103.57 1384.81 1103.97 1359.57 1104.02 1335.18 C 1094.47 1334.97 1084.61 1335.05 1075.04 1335 L 1075.11 1313.91 z" fill="rgb(27,29,58)" transform="translate(0,0)"></path>
<path d="M 633.847 1138.9 C 638.147 1134.81 655.519 1117.73 660.068 1117.43 C 684.21 1142.87 701.397 1153.36 733.818 1165.63 C 733.021 1169.24 720.912 1184.7 717.861 1188.96 C 710.088 1186.92 701.454 1183.21 693.942 1180.39 C 665.008 1169.51 653.995 1160.97 633.847 1138.9 z" fill="rgb(27,29,58)" transform="translate(0,0)"></path>
<path d="M 1184.03 1313.97 C 1192.84 1313.67 1201.22 1313.86 1210.02 1314.03 C 1211.16 1323.83 1210.79 1340.63 1210.74 1350.73 L 1210.5 1408.87 C 1208 1411.05 1188.7 1410.02 1184 1409.97 C 1184.34 1377.97 1184.34 1345.97 1184.03 1313.97 z" fill="rgb(27,29,58)" transform="translate(0,0)"></path>
<path d="M 930.418 1313.49 L 950.315 1313.06 C 950.192 1324.32 950.973 1406.08 949.425 1409.75 L 945.25 1409.93 C 938.22 1409.92 931.192 1409.77 924.168 1409.49 C 923.891 1398.97 923.305 1316.15 925.039 1313.97 L 930.418 1313.49 z" fill="rgb(27,29,58)" transform="translate(0,0)"></path>
<path d="M 1025.54 389.804 C 1026.13 396.517 1008.32 437.615 1006.59 458.027 C 1027.48 452.256 1049.81 448.545 1068.7 463.317 C 1072.15 466.015 1078.14 472.078 1078.7 476.542 C 1069.71 466.102 1065.22 465.163 1052.32 461.165 C 1019.61 457.967 1007.94 464.202 980.87 482.117 C 988.832 447.738 1004.64 418.02 1025.54 389.804 z" fill="rgb(27,29,58)" transform="translate(0,0)"></path>
<path d="M 1306.59 477.089 C 1311.25 473.575 1314.46 471.092 1319.59 468.17 C 1324.87 474.19 1332.37 485.755 1337.08 489.626 C 1328.78 495.741 1317.81 502.737 1310.14 508.816 C 1308.3 507.233 1296.23 490.373 1292.65 486.227 L 1293.94 484.864 C 1297.77 482.183 1302.52 479.514 1306.59 477.089 z" fill="rgb(27,29,58)" transform="translate(0,0)"></path>
<path d="M 1292.65 486.227 L 1293.94 484.864 C 1300.22 491.536 1307.97 499.864 1310.14 508.816 C 1308.3 507.233 1296.23 490.373 1292.65 486.227 z" fill="rgb(57,58,87)" transform="translate(0,0)"></path>
<path d="M 1306.59 477.089 C 1311.57 479.281 1322.07 493.335 1323.91 497.913 C 1319.3 495.018 1307.68 481.458 1306.59 477.089 z" fill="rgb(57,58,87)" transform="translate(0,0)"></path>
<path d="M 581.965 1210.78 C 586.394 1210.82 604.866 1220.82 609.479 1224.3 C 620.166 1232.38 648.147 1233.93 638.328 1251.03 C 636.588 1252.68 635.845 1253.05 633.795 1254.34 C 629.567 1253.02 585.342 1215.6 581.965 1210.78 z" fill="rgb(27,29,58)" transform="translate(0,0)"></path>
<path d="M 664.371 1114.22 C 680.124 1128.55 690.952 1138.83 710.851 1147.88 C 718.189 1151.22 728.419 1154.41 734.781 1157.47 L 733.818 1165.63 C 701.397 1153.36 684.21 1142.87 660.068 1117.43 L 664.371 1114.22 z" fill="rgb(253,253,250)" fill-opacity="0.819608" transform="translate(0,0)"></path>
<path d="M 1197.36 1192.56 C 1201.87 1190.56 1215.06 1187.22 1220.16 1186.37 L 1221.03 1187.66 C 1225.77 1187.33 1235.04 1190.67 1238.55 1193.86 C 1239.15 1196.96 1239.33 1195.43 1237.38 1198.51 C 1229.41 1201.19 1222.12 1199.57 1214.27 1202.65 C 1208.91 1204.66 1198.12 1206.81 1192.13 1208.18 C 1192.27 1207.53 1198.15 1193.94 1198.38 1193.63 L 1197.36 1192.56 z" fill="rgb(253,253,250)" fill-opacity="0.298039" transform="translate(0,0)"></path>
<path d="M 1035.13 584.272 L 1038.56 584.881 L 1040.93 588.36 C 1047.45 591.918 1048.66 590.726 1055.64 588.957 C 1055.52 588.988 1070.53 593.774 1071.13 594.03 C 1087.66 601.125 1108.54 602.746 1124.85 608.283 C 1124.61 609.911 1122.09 612.829 1120.93 614.417 C 1103.69 610.737 1042.45 594.182 1030.93 585.395 L 1033.86 584.357 L 1035.13 584.272 z" fill="rgb(253,253,250)" fill-opacity="0.988235" transform="translate(0,0)"></path>
<path d="M 1361.6 1257.85 C 1361.18 1260.49 1361.29 1263.12 1358.58 1264.17 C 1335.19 1273.21 1282.59 1269.08 1257.71 1268.81 C 1254.25 1266.95 1255.85 1270.5 1249.7 1266.13 C 1277.3 1264.26 1308 1266.76 1335.05 1262.83 C 1341.15 1262.62 1345.19 1262.69 1350.2 1259.29 C 1353.01 1261.95 1358.61 1259.19 1361.6 1257.85 z" fill="url(#Gradient1)" transform="translate(0,0)"></path>
<path d="M 1068.13 807.15 L 1070.27 804.557 C 1078.95 806.74 1086.37 809.659 1095.63 811.628 C 1100.91 812.752 1116.52 814.713 1120.2 816.069 C 1117.26 817.833 1116.35 818.144 1113.02 819.017 C 1114.79 820.494 1116.68 822.009 1118.41 823.519 C 1107.88 824.976 1068.03 813.609 1059.15 807.968 L 1068.13 807.15 z M 1088.71 813.635 C 1083.71 811.559 1076.91 809.046 1071.48 808.966 C 1076.9 813.974 1081.47 815.052 1088.71 813.635 z" fill="rgb(253,253,250)" fill-opacity="0.988235" transform="translate(0,0)"></path>
<path d="M 1071.48 808.966 C 1076.91 809.046 1083.71 811.559 1088.71 813.635 C 1081.47 815.052 1076.9 813.974 1071.48 808.966 z" fill="rgb(253,253,250)" fill-opacity="0.780392" transform="translate(0,0)"></path>
<path d="M 1127.6 918.597 C 1132.71 910.026 1154.05 887.835 1162.34 881.823 L 1163.23 883.717 L 1162.84 885.102 C 1159.42 888.358 1156.01 891.029 1153.94 895.186 L 1154.91 895.931 C 1157.45 895.186 1159.69 894.506 1162.21 893.648 L 1164.02 894.19 C 1155.53 900.333 1136.34 914.712 1127.6 918.597 z" fill="rgb(253,253,250)" fill-opacity="0.988235" transform="translate(0,0)"></path>
<path d="M 1257.71 1268.81 C 1244.89 1268.92 1190.2 1274.2 1181.09 1269.07 C 1183.64 1267.57 1242.71 1266.12 1249.7 1266.13 C 1255.85 1270.5 1254.25 1266.95 1257.71 1268.81 z" fill="rgb(27,29,58)" transform="translate(0,0)"></path>
<path d="M 1164.02 894.19 L 1162.21 893.648 C 1159.69 894.506 1157.45 895.186 1154.91 895.931 L 1153.94 895.186 C 1156.01 891.029 1159.42 888.358 1162.84 885.102 C 1167.75 889.001 1167.53 883.497 1170.3 889.149 C 1167.53 891.956 1167.36 892.064 1164.02 894.19 z" fill="rgb(253,253,250)" fill-opacity="0.345098" transform="translate(0,0)"></path>
<path d="M 1319.59 468.17 L 1321.39 467.008 C 1325.33 471.958 1335.24 483.907 1337.08 489.626 C 1332.37 485.755 1324.87 474.19 1319.59 468.17 z" fill="rgb(87,89,110)" fill-opacity="0.988235" transform="translate(0,0)"></path>
<path d="M 1269.17 500.971 C 1274.93 507.076 1280.61 516.067 1284.84 523.326 C 1281.1 519.752 1271.21 506.502 1268.51 501.876 L 1269.17 500.971 z" fill="rgb(87,89,110)" fill-opacity="0.988235" transform="translate(0,0)"></path>
<path d="M 1334.41 1259.91 C 1340.28 1259.19 1344.27 1258.42 1350.2 1259.29 C 1345.19 1262.69 1341.15 1262.62 1335.05 1262.83 C 1335.16 1261.39 1334.93 1261.43 1334.41 1259.91 z" fill="rgb(253,253,250)" fill-opacity="0.145098" transform="translate(0,0)"></path>
<path d="M 1362.39 471.038 C 1357.61 465.103 1353.26 460.021 1349.36 453.454 C 1353.86 456.096 1360.46 466.164 1363.37 470.535 L 1362.39 471.038 z" fill="rgb(114,115,131)" fill-opacity="0.988235" transform="translate(0,0)"></path>
<metadata><recraft-signature>{"signed_by": "recraft", "signature_b64": "aafqUrM0rIO+CKTFimGYR7jFvbMhefGwRoBKcJTXQrvTAwu9o1ELlX8BnIq1gLxDuXYplS/8rq6EMiz+222DBQ==", "signing_algo": "Ed25519", "generation_timestamp": 1776991881, "identifier": "89699f81-eed6-4f87-990b-0389ce9a3860"}</recraft-signature></metadata></svg>